<svg xmlns="http://www.w3.org/2000/svg" version="1.1" xmlns:xlink="http://www.w3.org/1999/xlink" xmlns:svgjs="http://svgjs.com/svgjs" width="512" height="512" x="0" y="0" viewBox="0 0 512 512" style="enable-background:new 0 0 512 512" xml:space="preserve" class="hovered-paths"><g>
<path xmlns="http://www.w3.org/2000/svg" style="" d="M256,259.435c-54.244,0-98.216,6.765-98.216,15.11c0,8.345,43.974,17.171,98.216,17.171  c54.244,0,98.216-8.826,98.216-17.171C354.217,266.2,310.244,259.435,256,259.435z" fill="#dddddd" data-original="#dddddd" class=""></path>
<g xmlns="http://www.w3.org/2000/svg">
	<path style="" d="M204.141,261.712c-67.131,6.435-57.344,21.204,4.788,27.675   C180.545,281.512,174.697,269.874,204.141,261.712z" fill="#bfc0c1" data-original="#bfc0c1" class=""></path>
    <path style="" d="M86.497,77.767H53.502c-6.8,0-12.363,5.563-12.363,12.363v48.765c0,6.8,5.563,12.363,12.363,12.363   h31.922C77.79,127.408,78.118,101.53,86.497,77.767z" fill="#bfc0c1" data-original="#bfc0c1" class=""></path>
</g>
<path xmlns="http://www.w3.org/2000/svg" style="" d="M62.376,138.895V90.13c0-6.8,5.563-12.363,12.363-12.363H53.502c-6.8,0-12.363,5.563-12.363,12.363  v48.765c0,6.8,5.563,12.363,12.363,12.363h21.236C67.939,151.258,62.376,145.695,62.376,138.895z" fill="#989da0" data-original="#989da0" class=""></path>
<path xmlns="http://www.w3.org/2000/svg" style="" d="M458.498,77.767h-32.995c8.362,23.714,8.722,49.592,1.073,73.491h31.922  c6.8,0,12.363-5.563,12.363-12.363V90.13C470.861,83.331,465.297,77.767,458.498,77.767z" fill="#bfc0c1" data-original="#bfc0c1" class=""></path>
<path xmlns="http://www.w3.org/2000/svg" style="" d="M450.242,77.767h-24.739c8.362,23.714,8.722,49.592,1.073,73.491h24.739  C458.949,127.408,458.621,101.53,450.242,77.767z" fill="#989da0" data-original="#989da0" class=""></path>
<path xmlns="http://www.w3.org/2000/svg" style="" d="M434.116,116.106C434.116,52.248,381.868,0,318.01,0H193.99C130.176,0,77.885,52.204,77.885,116.106  c0,63.858,52.248,116.106,116.106,116.106h124.021C381.824,232.211,434.116,180.007,434.116,116.106z" fill="#dddddd" data-original="#dddddd" class=""></path>
<path xmlns="http://www.w3.org/2000/svg" style="" d="M99.121,116.106L99.121,116.106C99.121,52.248,151.368,0,215.226,0H193.99  C130.238,0,77.885,52.142,77.885,116.106c0,63.858,52.248,116.106,116.106,116.106h21.236  C151.368,232.211,99.121,179.963,99.121,116.106z" fill="#bfc0c1" data-original="#bfc0c1" class=""></path>
<path xmlns="http://www.w3.org/2000/svg" style="" d="M312.863,34.713c-13.661,0-96.46,0-113.727,0c-44.766,0-81.392,36.627-81.392,81.392l0,0  c0,44.766,36.627,81.392,81.392,81.392c17.047,0,99.977,0,113.727,0c44.766,0,81.392-36.626,81.392-81.392l0,0  C394.255,71.34,357.629,34.713,312.863,34.713z" fill="#585a60" data-original="#585a60" class="hovered-path"></path>
<path xmlns="http://www.w3.org/2000/svg" style="" d="M139.287,116.106L139.287,116.106c0-44.766,36.627-81.392,81.392-81.392H198.83  c-44.766,0-81.392,36.626-81.392,81.392l0,0c0,44.766,36.626,81.392,81.392,81.392h21.849  C175.913,197.498,139.287,160.871,139.287,116.106z" fill="#414356" data-original="#414356" class=""></path>
<g xmlns="http://www.w3.org/2000/svg">
	<circle style="" cx="200.303" cy="114.512" r="28.846" fill="#6edcf9" data-original="#6edcf9" class=""></circle>
    <circle style="" cx="311.694" cy="114.512" r="28.846" fill="#6edcf9" data-original="#6edcf9" class=""></circle>
</g>
<g xmlns="http://www.w3.org/2000/svg">
	<path style="" d="M192.691,114.513c0-12.181,7.553-22.59,18.229-26.82c-3.287-1.303-6.867-2.026-10.618-2.026   c-15.932,0-28.846,12.915-28.846,28.846s12.915,28.847,28.846,28.847c3.751,0,7.331-0.724,10.618-2.026   C200.244,137.104,192.691,126.694,192.691,114.513z" fill="#52c7e2" data-original="#52c7e2" class=""></path>
    <path style="" d="M322.317,87.692c-3.287-1.303-6.867-2.026-10.618-2.026c-15.932,0-28.846,12.915-28.846,28.846   c0,20.339,20.545,34.317,39.465,26.82C298.061,131.722,298.07,97.3,322.317,87.692z" fill="#52c7e2" data-original="#52c7e2" class=""></path>
</g>
<path xmlns="http://www.w3.org/2000/svg" style="" d="M353.359,272.545c0.563,0.654,0.858,1.322,0.858,2c0,8.345-43.974,15.11-98.216,15.11  c-59.216,0-105.182-8.016-97.358-17.111c-26.008,25.343-42.168,60.747-42.168,99.93C116.475,449.532,178.942,512,256,512  s139.526-62.468,139.526-139.526C395.526,333.292,379.367,297.888,353.359,272.545z" fill="#dddddd" data-original="#dddddd" class=""></path>
<path xmlns="http://www.w3.org/2000/svg" style="" d="M170.946,282.105c-5.851-1.555-16.245-4.98-12.305-9.561c-26.008,25.343-42.168,60.747-42.168,99.93  c0,77.058,62.468,139.526,139.526,139.526c3.572,0,7.113-0.136,10.618-0.399C152.957,503.048,97.383,368.533,170.946,282.105z" fill="#bfc0c1" data-original="#bfc0c1" class=""></path>
<path xmlns="http://www.w3.org/2000/svg" style="" d="M212.627,323.215c0.532,5.569,0.702,4.515,34.631,40.694c4.808,4.808,12.676,4.808,17.484,0  c33.938-36.188,34.099-35.122,34.632-40.694C271.386,325.716,241.331,325.78,212.627,323.215z" fill="#f7ac16" data-original="#f7ac16" class=""></path>
<path xmlns="http://www.w3.org/2000/svg" style="" d="M236.583,324.733c-8.174-0.317-16.178-0.823-23.956-1.518c0.532,5.569,0.702,4.515,34.631,40.694  c4.808,4.808,12.676,4.808,17.484,0l3.111-3.317C237.087,327.786,237.56,329.13,236.583,324.733z" fill="#ef9614" data-original="#ef9614" class=""></path>
<path xmlns="http://www.w3.org/2000/svg" style="" d="M380.147,308.762c-6.944-13.499-16.018-25.723-26.788-36.218c0.563,0.654,0.858,1.322,0.858,2  c0,8.345-43.974,15.11-98.216,15.11c-59.216,0-105.182-8.016-97.358-17.111c-10.77,10.495-19.844,22.718-26.788,36.219  C198.862,333.192,313.107,333.204,380.147,308.762z" fill="#989da0" data-original="#989da0" class=""></path>
<path xmlns="http://www.w3.org/2000/svg" style="" d="M131.853,308.762c5.706,2.08,11.867,4.016,18.425,5.791c5.39-11.787,12.368-22.696,20.668-32.448  c-5.833-1.549-16.233-4.994-12.305-9.561C148.148,282.769,138.933,294.999,131.853,308.762z" fill="#838384" data-original="#838384" class=""></path>
<g xmlns="http://www.w3.org/2000/svg">
</g>
<g xmlns="http://www.w3.org/2000/svg">
</g>
<g xmlns="http://www.w3.org/2000/svg">
</g>
<g xmlns="http://www.w3.org/2000/svg">
</g>
<g xmlns="http://www.w3.org/2000/svg">
</g>
<g xmlns="http://www.w3.org/2000/svg">
</g>
<g xmlns="http://www.w3.org/2000/svg">
</g>
<g xmlns="http://www.w3.org/2000/svg">
</g>
<g xmlns="http://www.w3.org/2000/svg">
</g>
<g xmlns="http://www.w3.org/2000/svg">
</g>
<g xmlns="http://www.w3.org/2000/svg">
</g>
<g xmlns="http://www.w3.org/2000/svg">
</g>
<g xmlns="http://www.w3.org/2000/svg">
</g>
<g xmlns="http://www.w3.org/2000/svg">
</g>
<g xmlns="http://www.w3.org/2000/svg">
</g>
</g></svg>